<svg width="25" height="25" viewBox="0 0 25 25" fill="none" xmlns="http://www.w3.org/2000/svg">
<path d="M4.1665 6.24992C4.1665 5.97365 4.27625 5.7087 4.4716 5.51335C4.66695 5.318 4.9319 5.20825 5.20817 5.20825H19.7915C20.0678 5.20825 20.3327 5.318 20.5281 5.51335C20.7234 5.7087 20.8332 5.97365 20.8332 6.24992C20.8332 6.52619 20.7234 6.79114 20.5281 6.98649C20.3327 7.18184 20.0678 7.29159 19.7915 7.29159H5.20817C4.9319 7.29159 4.66695 7.18184 4.4716 6.98649C4.27625 6.79114 4.1665 6.52619 4.1665 6.24992ZM4.1665 18.7499C4.1665 18.4737 4.27625 18.2087 4.4716 18.0133C4.66695 17.818 4.9319 17.7083 5.20817 17.7083H19.7915C20.0678 17.7083 20.3327 17.818 20.5281 18.0133C20.7234 18.2087 20.8332 18.4737 20.8332 18.7499C20.8332 19.0262 20.7234 19.2911 20.5281 19.4865C20.3327 19.6818 20.0678 19.7916 19.7915 19.7916H5.20817C4.9319 19.7916 4.66695 19.6818 4.4716 19.4865C4.27625 19.2911 4.1665 19.0262 4.1665 18.7499ZM11.4582 11.4583C11.1819 11.4583 10.917 11.568 10.7216 11.7633C10.5263 11.9587 10.4165 12.2237 10.4165 12.4999C10.4165 12.7762 10.5263 13.0411 10.7216 13.2365C10.917 13.4318 11.1819 13.5416 11.4582 13.5416H19.7915C20.0678 13.5416 20.3327 13.4318 20.5281 13.2365C20.7234 13.0411 20.8332 12.7762 20.8332 12.4999C20.8332 12.2237 20.7234 11.9587 20.5281 11.7633C20.3327 11.568 20.0678 11.4583 19.7915 11.4583H11.4582Z" fill="black"/>
</svg>
