<svg width="31" height="31" viewBox="0 0 31 31" fill="none" xmlns="http://www.w3.org/2000/svg">
<path d="M15.2884 11.2412C13.1312 11.2412 11.3709 13.0193 11.3709 15.1981C11.3709 17.3769 13.1312 19.155 15.2884 19.155C17.4455 19.155 19.2059 17.3769 19.2059 15.1981C19.2059 13.0193 17.4455 11.2412 15.2884 11.2412ZM27.038 15.1981C27.038 13.5596 27.0527 11.9358 26.9616 10.3003C26.8705 8.40047 26.4414 6.71442 25.066 5.3252C23.6877 3.93302 22.0213 3.5026 20.1404 3.41058C18.5182 3.31856 16.9106 3.3334 15.2913 3.3334C13.669 3.3334 12.0615 3.31856 10.4422 3.41058C8.56129 3.5026 6.89201 3.93599 5.51662 5.3252C4.13829 6.71738 3.71215 8.40047 3.62105 10.3003C3.52994 11.9388 3.54464 13.5625 3.54464 15.1981C3.54464 16.8337 3.52994 18.4604 3.62105 20.096C3.71215 21.9958 4.14123 23.6818 5.51662 25.071C6.89495 26.4632 8.56129 26.8936 10.4422 26.9857C12.0644 27.0777 13.672 27.0628 15.2913 27.0628C16.9136 27.0628 18.5211 27.0777 20.1404 26.9857C22.0213 26.8936 23.6906 26.4603 25.066 25.071C26.4443 23.6789 26.8705 21.9958 26.9616 20.096C27.0556 18.4604 27.038 16.8367 27.038 15.1981ZM15.2884 21.2863C11.9527 21.2863 9.26074 18.5673 9.26074 15.1981C9.26074 11.829 11.9527 9.10992 15.2884 9.10992C18.624 9.10992 21.316 11.829 21.316 15.1981C21.316 18.5673 18.624 21.2863 15.2884 21.2863ZM21.5629 10.2824C20.7841 10.2824 20.1551 9.6472 20.1551 8.86057C20.1551 8.07395 20.7841 7.43871 21.5629 7.43871C22.3417 7.43871 22.9706 8.07395 22.9706 8.86057C22.9708 9.04736 22.9346 9.23236 22.8639 9.40498C22.7932 9.57759 22.6895 9.73443 22.5588 9.86651C22.428 9.99859 22.2727 10.1033 22.1018 10.1747C21.9309 10.2461 21.7478 10.2827 21.5629 10.2824Z" fill="black"/>
</svg>
