<svg width="25" height="25" viewBox="0 0 25 25" fill="none" xmlns="http://www.w3.org/2000/svg">
<path d="M4.16667 6.24992C4.16667 5.97365 4.27642 5.7087 4.47177 5.51335C4.66712 5.318 4.93207 5.20825 5.20834 5.20825H19.7917C20.0679 5.20825 20.3329 5.318 20.5282 5.51335C20.7236 5.7087 20.8333 5.97365 20.8333 6.24992C20.8333 6.52619 20.7236 6.79114 20.5282 6.98649C20.3329 7.18184 20.0679 7.29159 19.7917 7.29159H5.20834C4.93207 7.29159 4.66712 7.18184 4.47177 6.98649C4.27642 6.79114 4.16667 6.52619 4.16667 6.24992ZM4.16667 18.7499C4.16667 18.4737 4.27642 18.2087 4.47177 18.0133C4.66712 17.818 4.93207 17.7083 5.20834 17.7083H19.7917C20.0679 17.7083 20.3329 17.818 20.5282 18.0133C20.7236 18.2087 20.8333 18.4737 20.8333 18.7499C20.8333 19.0262 20.7236 19.2911 20.5282 19.4865C20.3329 19.6818 20.0679 19.7916 19.7917 19.7916H5.20834C4.93207 19.7916 4.66712 19.6818 4.47177 19.4865C4.27642 19.2911 4.16667 19.0262 4.16667 18.7499ZM11.4583 11.4583C11.1821 11.4583 10.9171 11.568 10.7218 11.7633C10.5264 11.9587 10.4167 12.2237 10.4167 12.4999C10.4167 12.7762 10.5264 13.0411 10.7218 13.2365C10.9171 13.4318 11.1821 13.5416 11.4583 13.5416H19.7917C20.0679 13.5416 20.3329 13.4318 20.5282 13.2365C20.7236 13.0411 20.8333 12.7762 20.8333 12.4999C20.8333 12.2237 20.7236 11.9587 20.5282 11.7633C20.3329 11.568 20.0679 11.4583 19.7917 11.4583H11.4583Z" fill="black"/>
</svg>
