<svg width="31" height="31" viewBox="0 0 31 31" fill="none" xmlns="http://www.w3.org/2000/svg">
<path d="M28.0617 8.78945C27.9118 8.22556 27.6179 7.71134 27.2094 7.29823C26.8009 6.88512 26.2922 6.58762 25.7341 6.4355C23.6798 5.87744 15.4451 5.87744 15.4451 5.87744C15.4451 5.87744 7.21039 5.87744 5.15612 6.43253C4.59779 6.58416 4.08879 6.88149 3.68023 7.29468C3.27167 7.70786 2.97794 8.22235 2.82853 8.78648C2.27896 10.8644 2.27896 15.1982 2.27896 15.1982C2.27896 15.1982 2.27896 19.5321 2.82853 21.607C3.13123 22.7528 4.02465 23.6552 5.15612 23.961C7.21039 24.519 15.4451 24.519 15.4451 24.519C15.4451 24.519 23.6798 24.519 25.7341 23.961C26.8685 23.6552 27.759 22.7528 28.0617 21.607C28.6112 19.5321 28.6112 15.1982 28.6112 15.1982C28.6112 15.1982 28.6112 10.8644 28.0617 8.78945ZM12.8295 19.1759V11.2206L19.6477 15.1686L12.8295 19.1759Z" fill="black"/>
</svg>
